<svg width="15" height="18" viewBox="0 0 15 18" fill="none" xmlns="http://www.w3.org/2000/svg">
<g id="Group 71">
<g id="Group 70">
<path id="Vector" d="M14 7.90002C14 12.9556 7.5 17.2889 7.5 17.2889C7.5 17.2889 1 12.9556 1 7.90002C1 6.17612 1.68482 4.52282 2.90381 3.30383C4.12279 2.08484 5.77609 1.40002 7.5 1.40002C9.22391 1.40002 10.8772 2.08484 12.0962 3.30383C13.3152 4.52282 14 6.17612 14 7.90002Z" stroke="white" stroke-linecap="round" stroke-linejoin="round"/>
<path id="Vector_2" d="M7.50001 10.0667C8.69663 10.0667 9.66668 9.09668 9.66668 7.90007C9.66668 6.70345 8.69663 5.7334 7.50001 5.7334C6.30339 5.7334 5.33334 6.70345 5.33334 7.90007C5.33334 9.09668 6.30339 10.0667 7.50001 10.0667Z" stroke="white" stroke-linecap="round" stroke-linejoin="round"/>
</g>
</g>
</svg>
