<svg width="17" height="16" viewBox="0 0 17 16" fill="none" xmlns="http://www.w3.org/2000/svg">
<g id="Group 82">
<path id="Vector" d="M11.8909 5.5C13.0843 5.5 14.2289 5.97411 15.0729 6.81802C15.9168 7.66193 16.3909 8.80653 16.3909 10V15.25H13.3909V10C13.3909 9.60218 13.2328 9.22064 12.9515 8.93934C12.6702 8.65804 12.2887 8.5 11.8909 8.5C11.493 8.5 11.1115 8.65804 10.8302 8.93934C10.5489 9.22064 10.3909 9.60218 10.3909 10V15.25H7.39087V10C7.39087 8.80653 7.86498 7.66193 8.70889 6.81802C9.5528 5.97411 10.6974 5.5 11.8909 5.5V5.5Z" stroke="white" stroke-linecap="round" stroke-linejoin="round"/>
<path id="Vector_2" d="M4.39087 6.25H1.39087V15.25H4.39087V6.25Z" stroke="white" stroke-linecap="round" stroke-linejoin="round"/>
<path id="Vector_3" d="M2.89087 4C3.7193 4 4.39087 3.32843 4.39087 2.5C4.39087 1.67157 3.7193 1 2.89087 1C2.06244 1 1.39087 1.67157 1.39087 2.5C1.39087 3.32843 2.06244 4 2.89087 4Z" stroke="white" stroke-linecap="round" stroke-linejoin="round"/>
</g>
</svg>
