<svg width="15" height="15" viewBox="0 0 15 15" fill="none" xmlns="http://www.w3.org/2000/svg">
<g id="Group 71">
<path id="Vector" d="M9.03682 3.88472C9.64354 4.00309 10.2011 4.29982 10.6382 4.73693C11.0754 5.17404 11.3721 5.73163 11.4905 6.33836L9.03682 3.88472ZM9.03682 1.40002C10.2974 1.54006 11.4728 2.10454 12.3702 3.00079C13.2676 3.89704 13.8335 5.07179 13.9752 6.33214L9.03682 1.40002ZM13.354 11.2891V13.1526C13.3547 13.3256 13.3192 13.4969 13.2499 13.6554C13.1806 13.8139 13.079 13.9562 12.9515 14.0731C12.824 14.1901 12.6735 14.2791 12.5096 14.3345C12.3458 14.39 12.1721 14.4106 11.9998 14.395C10.0884 14.1873 8.25228 13.5341 6.63909 12.488C5.13823 11.5343 3.86576 10.2618 2.91205 8.76093C1.86225 7.14042 1.20894 5.2954 1.00504 3.37536C0.989519 3.20358 1.00993 3.03046 1.06499 2.867C1.12004 2.70355 1.20852 2.55335 1.3248 2.42597C1.44108 2.29859 1.58261 2.19681 1.74038 2.12712C1.89815 2.05743 2.0687 2.02136 2.24118 2.0212H4.1047C4.40616 2.01823 4.69841 2.12498 4.92699 2.32156C5.15556 2.51813 5.30486 2.79111 5.34705 3.08962C5.4257 3.68599 5.57157 4.27154 5.78187 4.83512C5.86544 5.05745 5.88353 5.29908 5.83399 5.53138C5.78445 5.76368 5.66935 5.9769 5.50234 6.14579L4.71345 6.93468C5.59773 8.48982 6.88536 9.77745 8.44049 10.6617L9.22938 9.87284C9.39827 9.70583 9.6115 9.59073 9.8438 9.54119C10.0761 9.49164 10.3177 9.50973 10.5401 9.59331C11.1036 9.80361 11.6892 9.94947 12.2856 10.0281C12.5873 10.0707 12.8629 10.2227 13.0599 10.4552C13.2569 10.6877 13.3615 10.9845 13.354 11.2891Z" stroke="white" stroke-linecap="round" stroke-linejoin="round"/>
</g>
</svg>
