<svg width="20" height="15" viewBox="0 0 20 15" fill="none" xmlns="http://www.w3.org/2000/svg">
<g id="Group 80">
<path id="Vector" d="M19.0141 2.9799C18.9169 2.59162 18.7189 2.23586 18.4403 1.94856C18.1616 1.66125 17.812 1.45258 17.4269 1.34362C16.0197 1 10.3909 1 10.3909 1C10.3909 1 4.76207 1 3.35487 1.37634C2.96973 1.48531 2.62016 1.69398 2.34148 1.98128C2.0628 2.26858 1.86487 2.62434 1.76768 3.01262C1.51014 4.44073 1.38417 5.88945 1.39134 7.34058C1.38216 8.80263 1.50814 10.2624 1.76768 11.7013C1.87482 12.0775 2.07719 12.4197 2.35522 12.6949C2.63326 12.97 2.97756 13.1689 3.35487 13.2721C4.76207 13.6484 10.3909 13.6484 10.3909 13.6484C10.3909 13.6484 16.0197 13.6484 17.4269 13.2721C17.812 13.1631 18.1616 12.9545 18.4403 12.6672C18.7189 12.3799 18.9169 12.0241 19.0141 11.6358C19.2696 10.2185 19.3956 8.78078 19.3904 7.34058C19.3996 5.87853 19.2736 4.41876 19.0141 2.9799V2.9799Z" stroke="white" stroke-linecap="round" stroke-linejoin="round"/>
<path id="Vector_2" d="M8.55005 10.0157L13.2543 7.34035L8.55005 4.66504V10.0157Z" stroke="white" stroke-linecap="round" stroke-linejoin="round"/>
</g>
</svg>
